# xmcd
#
# Track frame offsets:
#	150
#	4881
#	6373
#	7935
#	9710
#	11769
#	13902
#	15916
#	17893
#	19429
#	20556
#	22006
#	23299
#	24496
#	25779
#	26847
#	27865
#	29170
#	30626
#	32215
#	33965
#	35818
#	37853
#	39400
#	41037
#	43959
#	46963
#	48427
#	49980
#	50708
#	51461
#	52088
#	53788
#	55616
#	56564
#	58110
#	60110
#	63713
#	67553
#	69504
#	71648
#	73355
#	74184
#	76249
#	78516
#	80338
#	82781
#	84532
#	85861
#	86692
#	87387
#	88164
#	89099
#	90495
#	93615
#	96884
#	97824
#	98965
#	100188
#	101670
#	103202
#	106610
#	110153
#	112022
#	113891
#	115667
#	118580
#	120563
#	122546
#	129698
#	133336
#	136072
#	137580
#	141275
#	145180
#	148474
#	151793
#	155257
#	158423
#	161730
#	163751
#	165221
#	166473
#	167737
#	170518
#	173517
#	176711
#	180544
#	184569
#	187527
#	190636
#	194888
#	199375
#	204081
#	208784
#	213666
#	216725
#
# Disc length: 2931 seconds
#
# Revision: 0
# Processed by: cddbd v1.5.2PL0 Copyright (c) Steve Scherf et al.
# Submitted via: dBpowerAMP V4.0
#
DISCID=500b7161
DTITLE=Christian Séguret - La méthode de Banjo
DYEAR=2010
DGENRE=Bluegrass
TTITLE0=01
TTITLE1=02
TTITLE2=03
TTITLE3=04
TTITLE4=05
TTITLE5=06
TTITLE6=07
TTITLE7=08
TTITLE8=09
TTITLE9=10
TTITLE10=11
TTITLE11=12
TTITLE12=13
TTITLE13=14
TTITLE14=15
TTITLE15=16
TTITLE16=17
TTITLE17=18
TTITLE18=19
TTITLE19=20
TTITLE20=21
TTITLE21=22
TTITLE22=23
TTITLE23=24
TTITLE24=25
TTITLE25=26
TTITLE26=27
TTITLE27=28
TTITLE28=29
TTITLE29=30
TTITLE30=31
TTITLE31=32
TTITLE32=33
TTITLE33=34
TTITLE34=35
TTITLE35=36
TTITLE36=37
TTITLE37=38
TTITLE38=39
TTITLE39=40
TTITLE40=41
TTITLE41=42
TTITLE42=43
TTITLE43=44
TTITLE44=45
TTITLE45=46
TTITLE46=47
TTITLE47=48
TTITLE48=49
TTITLE49=50
TTITLE50=51
TTITLE51=52
TTITLE52=53
TTITLE53=54
TTITLE54=55
TTITLE55=56
TTITLE56=57
TTITLE57=58
TTITLE58=59
TTITLE59=60
TTITLE60=61
TTITLE61=62
TTITLE62=63
TTITLE63=64
TTITLE64=65
TTITLE65=66
TTITLE66=67
TTITLE67=68
TTITLE68=69
TTITLE69=70
TTITLE70=71
TTITLE71=72
TTITLE72=73
TTITLE73=74
TTITLE74=75
TTITLE75=76
TTITLE76=77
TTITLE77=78
TTITLE78=79
TTITLE79=80
TTITLE80=81
TTITLE81=82
TTITLE82=83
TTITLE83=84
TTITLE84=85
TTITLE85=86
TTITLE86=87
TTITLE87=88
TTITLE88=89
TTITLE89=90
TTITLE90=91
TTITLE91=92
TTITLE92=93
TTITLE93=94
TTITLE94=95
TTITLE95=96
TTITLE96=97
EXTD=
EXTT0=
EXTT1=
EXTT2=
EXTT3=
EXTT4=
EXTT5=
EXTT6=
EXTT7=
EXTT8=
EXTT9=
EXTT10=
EXTT11=
EXTT12=
EXTT13=
EXTT14=
EXTT15=
EXTT16=
EXTT17=
EXTT18=
EXTT19=
EXTT20=
EXTT21=
EXTT22=
EXTT23=
EXTT24=
EXTT25=
EXTT26=
EXTT27=
EXTT28=
EXTT29=
EXTT30=
EXTT31=
EXTT32=
EXTT33=
EXTT34=
EXTT35=
EXTT36=
EXTT37=
EXTT38=
EXTT39=
EXTT40=
EXTT41=
EXTT42=
EXTT43=
EXTT44=
EXTT45=
EXTT46=
EXTT47=
EXTT48=
EXTT49=
EXTT50=
EXTT51=
EXTT52=
EXTT53=
EXTT54=
EXTT55=
EXTT56=
EXTT57=
EXTT58=
EXTT59=
EXTT60=
EXTT61=
EXTT62=
EXTT63=
EXTT64=
EXTT65=
EXTT66=
EXTT67=
EXTT68=
EXTT69=
EXTT70=
EXTT71=
EXTT72=
EXTT73=
EXTT74=
EXTT75=
EXTT76=
EXTT77=
EXTT78=
EXTT79=
EXTT80=
EXTT81=
EXTT82=
EXTT83=
EXTT84=
EXTT85=
EXTT86=
EXTT87=
EXTT88=
EXTT89=
EXTT90=
EXTT91=
EXTT92=
EXTT93=
EXTT94=
EXTT95=
EXTT96=
PLAYORDER=
